<svg id="a6ee8617-cc99-4eb9-a93b-e1a7e83c9724" data-name="Layer 1" xmlns="http://www.w3.org/2000/svg" width="155" height="126" viewBox="0 0 1088 826.29361"><title>code typing</title><path xmlns="http://www.w3.org/2000/svg" d="M990.987,366.24078C943.16694,178.20138,777.93353,42.46323,583.98525,37.01889,481.45062,34.14063,373.55556,68.14681,295,187.14681c-140.42655,212.72536,8.62954,359.72511,97.5470,589.42250C300.14286,720.819,747.17857,924.32538,908,762.14681,1024.56358,644.59957,1022.83991,491.4936,990.987,366.24078Z" transform="translate(-56 -36.85319)" fill="#f2f2f2"/><polygon xmlns="http://www.w3.org/2000/svg" points="719.6 507.394 818 409.294 719.6 311.194 749.6 281.294 878 409.294 749.6 537.294 719.6 507.394 719.6 507.394" opacity="0.1"/><path xmlns="http://www.w3.org/2000/svg" d="M494.6,453.14681h40v-40h-40Zm200.8-40h-40v40h40Zm-120.4,40h40v-40H575Z" transform="translate(-56 -36.85319)" opacity="0.1"/><polygon xmlns="http://www.w3.org/2000/svg" points="384.4 506.394 285.9 408.294 384.3 310.194 354.3 280.294 226 408.294 354.4 536.294 384.4 506.394" opacity="0.1"/><polygon xmlns="http://www.w3.org/2000/svg" points="719.6 488.394 818 390.294 719.6 292.194 749.6 262.294 878 390.294 749.6 518.294 719.6 488.394 719.6 488.394" fill="#6c63ff"/><path xmlns="http://www.w3.org/2000/svg" d="M494.6,434.14681h40v-40h-40Zm200.8-40h-40v40h40Zm-120.4,40h40v-40H575Z" transform="translate(-56 -36.85319)" fill="#6c63ff"/><polygon xmlns="http://www.w3.org/2000/svg" points="384.4 487.394 285.9 389.294 384.3 291.194 354.3 261.294 226 389.294 354.4 517.294 384.4 487.394" fill="#6c63ff"/></svg>